<svg xmlns="http://www.w3.org/2000/svg" width="29" height="32"><path d="M27.75 13.653a1.99 1.99 0 0 0-1.334-.791 1.992 1.992 0 0 0-1.504.395l-1.406 1.078-2.131 1.591-1.525-.607c2.719-1.22 4.619-3.939 4.619-7.096 0-4.293-3.506-7.785-7.816-7.785S8.837 3.93 8.837 8.223c0 1.556.465 3.003 1.258 4.22l-3.103-.027h-.005c-.01 0-.017.005-.026.005a.556.556 0 0 0-.174.035c-.014.005-.029.008-.043.015l-.022.007-3.63 1.792-.001.001-2.126 1.022a.468.468 0 0 0-.071.04 2 2 0 0 0 .514 3.575 2.008 2.008 0 0 0 1.548-.144l1.558-.829 2.542-1.313 1.523-.009-6.11 6.081-.002.001-1.503 1.497c-.355.353-.55.822-.55 1.322s.195.97.55 1.323c.365.363.844.545 1.324.545s.959-.182 1.325-.545l1.476-1.47 1.955-1.459 1.011 1.007-1.978 1.97-.002.001-1.503 1.497c-.355.353-.55.822-.55 1.322s.195.97.55 1.323c.365.363.845.545 1.325.545s.96-.182 1.325-.545l3.909-3.892.001-.002 1.134-1.123-.004-.004c.007-.007.017-.01.025-.017l5.8-6.353 3.897.555a.583.583 0 0 0 .294-.037c.02-.007.037-.017.056-.026.022-.011.044-.017.065-.03l3.608-2.395c.013-.009.02-.023.033-.033.014-.011.032-.016.045-.029l1.428-1.337a1.998 1.998 0 0 0 .238-2.652zM2.392 17.707a.802.802 0 0 1-.627.058.802.802 0 0 1-.238-1.415l1.475-.71.504 1.474-1.114.592zm3.927-2.052-1.738.898-.493-1.441 2.276-1.123-.044 1.666zm16.953-7.434a6.515 6.515 0 0 1-.672 2.874l-4.695-2.132a2.088 2.088 0 0 0-.885-1.558l1.644-5.457c2.67.849 4.609 3.34 4.609 6.274zm-13.236 0c0-3.632 2.969-6.587 6.618-6.587.284 0 .562.024.837.059l-1.608 5.338c-.022-.001-.042-.007-.064-.007-1.159 0-2.102.94-2.102 2.096s.943 2.096 2.102 2.096c.78 0 1.453-.431 1.817-1.061l4.337 1.97a6.616 6.616 0 0 1-5.318 2.683c-3.649 0-6.618-2.955-6.618-6.587zm6.687.899c0 .495-.406.898-.905.898s-.905-.403-.905-.898.406-.898.905-.898.905.403.905.898zM2.768 25.989a.683.683 0 0 1-.959.001.667.667 0 0 1 0-.948l1.08-1.076.956.952-1.077 1.072zm3.608 4.192a.683.683 0 0 1-.96.001.667.667 0 0 1 0-.948l1.081-1.077.956.952-1.077 1.072zm3.909-3.895-.002.001-1.982 1.976-.956-.952 1.98-1.971v-.001l.002-.001c.045-.045.073-.099.101-.152.008-.016.023-.029.029-.045.019-.046.022-.096.029-.144.004-.028.016-.053.016-.081 0-.04-.014-.079-.023-.119-.007-.036-.007-.073-.021-.107a.64.64 0 0 0-.102-.155c-.011-.013-.016-.03-.028-.043h-.001l-.001-.002-1.804-1.796c-.019-.019-.044-.027-.065-.043a.575.575 0 0 0-.098-.065.57.57 0 0 0-.105-.037.553.553 0 0 0-.116-.022.634.634 0 0 0-.107.005.59.59 0 0 0-.117.023c-.038.012-.071.031-.106.05-.022.013-.047.017-.068.032l-1.991 1.486-1.011-1.007 2.694-2.679 4.896 4.815-1.041 1.032zm7.657-7.879c-.017-.002-.034.004-.051.003a.617.617 0 0 0-.336.085.521.521 0 0 0-.093.069c-.014.013-.032.019-.045.033l-5.275 5.778-4.86-4.779 3.181-3.164a.6.6 0 0 0-.426-1.022v-.001l-2.491.015.031-1.805 3.485.03a7.8 7.8 0 0 0 5.593 2.359c.491 0 .97-.051 1.437-.138.045.036.089.073.146.095l2.706 1.078.171.852.2.994-3.371-.48zm4.537.201-.352-1.749 1.624-1.213 1.063 1.411-2.335 1.551zm4.215-3.179-.941.882-1.046-1.388.934-.716a.811.811 0 0 1 1.149.158.802.802 0 0 1-.096 1.064z"/></svg>